<svg width="4222" height="176" viewBox="0 0 4222 176" fill="none" xmlns="http://www.w3.org/2000/svg">
<path d="M48.96 28.2C62.88 28.2 74.496 33.048 83.808 42.744C93.216 52.344 97.92 64.296 97.92 78.6C97.92 92.904 93.216 104.904 83.808 114.6C74.496 124.2 62.88 129 48.96 129H8.64V28.2H48.96ZM48.96 106.824C56.928 106.824 63.36 104.28 68.256 99.192C73.248 94.008 75.744 87.144 75.744 78.6C75.744 70.056 73.248 63.24 68.256 58.152C63.36 52.968 56.928 50.376 48.96 50.376H31.68V106.824H48.96ZM145.434 106.824H185.754V129H122.394V28.2H185.034V50.376H145.434V67.08H181.434V88.968H145.434V106.824ZM245.554 131.016C235.282 131.016 226.69 128.808 219.778 124.392C212.962 119.88 208.114 113.784 205.234 106.104L225.106 94.584C229.138 103.896 236.194 108.552 246.274 108.552C255.394 108.552 259.954 105.816 259.954 100.344C259.954 97.368 258.466 95.064 255.49 93.432C252.61 91.704 247.138 89.736 239.074 87.528C234.85 86.376 231.154 85.08 227.986 83.64C224.818 82.2 221.698 80.328 218.626 78.024C215.65 75.624 213.346 72.648 211.714 69.096C210.178 65.544 209.41 61.464 209.41 56.856C209.41 47.544 212.722 40.104 219.346 34.536C226.066 28.968 234.034 26.184 243.25 26.184C251.506 26.184 258.802 28.152 265.138 32.088C271.474 35.928 276.466 41.544 280.114 48.936L260.674 60.312C258.85 56.472 256.594 53.592 253.906 51.672C251.218 49.656 247.666 48.648 243.25 48.648C239.794 48.648 237.106 49.416 235.186 50.952C233.362 52.392 232.45 54.168 232.45 56.28C232.45 58.776 233.602 60.936 235.906 62.76C238.306 64.584 243.202 66.6 250.594 68.808C254.626 70.056 257.746 71.064 259.954 71.832C262.162 72.6 264.946 73.896 268.306 75.72C271.762 77.448 274.354 79.32 276.082 81.336C277.906 83.256 279.49 85.848 280.834 89.112C282.274 92.28 282.994 95.928 282.994 100.056C282.994 109.656 279.538 117.24 272.626 122.808C265.714 128.28 256.69 131.016 245.554 131.016ZM305.325 28.2H328.365V129H305.325V28.2ZM456.996 72.84V81.48C456.996 96.552 452.292 108.6 442.884 117.624C433.572 126.552 421.716 131.016 407.316 131.016C391.668 131.016 378.66 125.976 368.292 115.896C358.02 105.816 352.884 93.432 352.884 78.744C352.884 64.056 357.972 51.624 368.148 41.448C378.42 31.272 390.948 26.184 405.732 26.184C415.14 26.184 423.732 28.296 431.508 32.52C439.38 36.744 445.476 42.312 449.796 49.224L430.212 60.456C428.004 57 424.692 54.168 420.276 51.96C415.956 49.752 411.06 48.648 405.588 48.648C397.044 48.648 389.94 51.48 384.276 57.144C378.708 62.808 375.924 70.056 375.924 78.888C375.924 87.624 378.804 94.776 384.564 100.344C390.324 105.816 398.004 108.552 407.604 108.552C420.948 108.552 429.54 103.368 433.38 93H406.452V72.84H456.996ZM537.666 28.2H560.706V129H543.426L504.546 74.28V129H481.506V28.2H498.786L537.666 82.92V28.2ZM699.51 76.728C707.766 82.008 711.894 89.592 711.894 99.48C711.894 108.216 708.774 115.32 702.534 120.792C696.294 126.264 688.566 129 679.35 129H637.014V28.2H676.47C685.494 28.2 693.03 30.888 699.078 36.264C705.222 41.544 708.294 48.456 708.294 57C708.294 65.064 705.366 71.64 699.51 76.728ZM676.47 49.8H660.054V67.656H676.47C679.062 67.656 681.174 66.84 682.806 65.208C684.438 63.48 685.254 61.32 685.254 58.728C685.254 56.136 684.438 54.024 682.806 52.392C681.174 50.664 679.062 49.8 676.47 49.8ZM679.35 107.4C682.23 107.4 684.534 106.536 686.262 104.808C687.99 102.984 688.854 100.632 688.854 97.752C688.854 94.872 687.99 92.568 686.262 90.84C684.534 89.016 682.23 88.104 679.35 88.104H660.054V107.4H679.35ZM787.87 129L768.862 95.88H757.918V129H734.878V28.2H775.198C784.798 28.2 792.958 31.56 799.678 38.28C806.398 45 809.758 53.16 809.758 62.76C809.758 68.904 808.03 74.616 804.574 79.896C801.214 85.08 796.75 89.112 791.182 91.992L812.638 129H787.87ZM757.918 49.8V75.72H775.198C778.366 75.72 781.054 74.472 783.262 71.976C785.566 69.48 786.718 66.408 786.718 62.76C786.718 59.112 785.566 56.04 783.262 53.544C781.054 51.048 778.366 49.8 775.198 49.8H757.918ZM899.072 129L894.032 113.16H856.592L851.552 129H826.352L860.624 28.2H890L924.272 129H899.072ZM863.504 91.56H887.12L875.312 54.552L863.504 91.56ZM1000.55 28.2H1023.59V129H1006.31L967.427 74.28V129H944.387V28.2H961.667L1000.55 82.92V28.2ZM1092.7 28.2C1106.62 28.2 1118.23 33.048 1127.54 42.744C1136.95 52.344 1141.66 64.296 1141.66 78.6C1141.66 92.904 1136.95 104.904 1127.54 114.6C1118.23 124.2 1106.62 129 1092.7 129H1052.38V28.2H1092.7ZM1092.7 106.824C1100.66 106.824 1107.1 104.28 1111.99 99.192C1116.98 94.008 1119.48 87.144 1119.48 78.6C1119.48 70.056 1116.98 63.24 1111.99 58.152C1107.1 52.968 1100.66 50.376 1092.7 50.376H1075.42V106.824H1092.7ZM1166.13 28.2H1189.17V129H1166.13V28.2ZM1274.17 28.2H1297.21V129H1279.93L1241.05 74.28V129H1218.01V28.2H1235.29L1274.17 82.92V28.2ZM1425.79 72.84V81.48C1425.79 96.552 1421.09 108.6 1411.68 117.624C1402.37 126.552 1390.51 131.016 1376.11 131.016C1360.46 131.016 1347.45 125.976 1337.09 115.896C1326.81 105.816 1321.68 93.432 1321.68 78.744C1321.68 64.056 1326.77 51.624 1336.94 41.448C1347.21 31.272 1359.74 26.184 1374.53 26.184C1383.93 26.184 1392.53 28.296 1400.3 32.52C1408.17 36.744 1414.27 42.312 1418.59 49.224L1399.01 60.456C1396.8 57 1393.49 54.168 1389.07 51.96C1384.75 49.752 1379.85 48.648 1374.38 48.648C1365.84 48.648 1358.73 51.48 1353.07 57.144C1347.5 62.808 1344.72 70.056 1344.72 78.888C1344.72 87.624 1347.6 94.776 1353.36 100.344C1359.12 105.816 1366.8 108.552 1376.4 108.552C1389.74 108.552 1398.33 103.368 1402.17 93H1375.25V72.84H1425.79ZM1563.92 121.656C1556.62 127.896 1547.31 131.016 1535.98 131.016C1524.65 131.016 1515.34 127.896 1508.04 121.656C1500.75 115.416 1497.1 107.016 1497.1 96.456V28.2H1520.14V94.44C1520.14 103.848 1525.42 108.552 1535.98 108.552C1546.54 108.552 1551.82 103.848 1551.82 94.44V28.2H1574.86V96.456C1574.86 107.016 1571.21 115.416 1563.92 121.656ZM1638.28 131.016C1628 131.016 1619.41 128.808 1612.5 124.392C1605.68 119.88 1600.84 113.784 1597.96 106.104L1617.83 94.584C1621.86 103.896 1628.92 108.552 1639 108.552C1648.12 108.552 1652.68 105.816 1652.68 100.344C1652.68 97.368 1651.19 95.064 1648.21 93.432C1645.33 91.704 1639.86 89.736 1631.8 87.528C1627.57 86.376 1623.88 85.08 1620.71 83.64C1617.54 82.2 1614.42 80.328 1611.35 78.024C1608.37 75.624 1606.07 72.648 1604.44 69.096C1602.9 65.544 1602.13 61.464 1602.13 56.856C1602.13 47.544 1605.44 40.104 1612.07 34.536C1618.79 28.968 1626.76 26.184 1635.97 26.184C1644.23 26.184 1651.52 28.152 1657.86 32.088C1664.2 35.928 1669.19 41.544 1672.84 48.936L1653.4 60.312C1651.57 56.472 1649.32 53.592 1646.63 51.672C1643.94 49.656 1640.39 48.648 1635.97 48.648C1632.52 48.648 1629.83 49.416 1627.91 50.952C1626.08 52.392 1625.17 54.168 1625.17 56.28C1625.17 58.776 1626.32 60.936 1628.63 62.76C1631.03 64.584 1635.92 66.6 1643.32 68.808C1647.35 70.056 1650.47 71.064 1652.68 71.832C1654.88 72.6 1657.67 73.896 1661.03 75.72C1664.48 77.448 1667.08 79.32 1668.8 81.336C1670.63 83.256 1672.21 85.848 1673.56 89.112C1675 92.28 1675.72 95.928 1675.72 100.056C1675.72 109.656 1672.26 117.24 1665.35 122.808C1658.44 128.28 1649.41 131.016 1638.28 131.016ZM1721.09 106.824H1761.41V129H1698.05V28.2H1760.69V50.376H1721.09V67.08H1757.09V88.968H1721.09V106.824ZM1838.92 129L1819.91 95.88H1808.97V129H1785.93V28.2H1826.25C1835.85 28.2 1844.01 31.56 1850.73 38.28C1857.45 45 1860.81 53.16 1860.81 62.76C1860.81 68.904 1859.08 74.616 1855.62 79.896C1852.26 85.08 1847.8 89.112 1842.23 91.992L1863.69 129H1838.92ZM1808.97 49.8V75.72H1826.25C1829.41 75.72 1832.1 74.472 1834.31 71.976C1836.61 69.48 1837.77 66.408 1837.77 62.76C1837.77 59.112 1836.61 56.04 1834.31 53.544C1832.1 51.048 1829.41 49.8 1826.25 49.8H1808.97ZM1933.56 28.2H1956.6V129H1933.56V28.2ZM2041.6 28.2H2064.64V129H2047.36L2008.48 74.28V129H1985.44V28.2H2002.72L2041.6 82.92V28.2ZM2161.11 28.2V50.376H2135.19V129H2112.15V50.376H2086.23V28.2H2161.11ZM2205.75 106.824H2246.07V129H2182.71V28.2H2245.35V50.376H2205.75V67.08H2241.75V88.968H2205.75V106.824ZM2323.59 129L2304.58 95.88H2293.63V129H2270.59V28.2H2310.91C2320.51 28.2 2328.67 31.56 2335.39 38.28C2342.11 45 2345.47 53.16 2345.47 62.76C2345.47 68.904 2343.75 74.616 2340.29 79.896C2336.93 85.08 2332.47 89.112 2326.9 91.992L2348.35 129H2323.59ZM2293.63 49.8V75.72H2310.91C2314.08 75.72 2316.77 74.472 2318.98 71.976C2321.28 69.48 2322.43 66.408 2322.43 62.76C2322.43 59.112 2321.28 56.04 2318.98 53.544C2316.77 51.048 2314.08 49.8 2310.91 49.8H2293.63ZM2431.91 50.376H2393.75V69.816H2431.19V91.992H2393.75V129H2370.71V28.2H2431.91V50.376ZM2516.76 129L2511.72 113.16H2474.28L2469.24 129H2444.04L2478.31 28.2H2507.69L2541.96 129H2516.76ZM2481.19 91.56H2504.81L2493 54.552L2481.19 91.56ZM2606.51 131.016C2591.44 131.016 2578.91 126.024 2568.93 116.04C2559.04 105.96 2554.1 93.48 2554.1 78.6C2554.1 63.72 2559.04 51.288 2568.93 41.304C2578.91 31.224 2591.44 26.184 2606.51 26.184C2615.54 26.184 2623.89 28.296 2631.57 32.52C2639.25 36.648 2645.3 42.312 2649.71 49.512L2629.84 61.032C2627.63 57.096 2624.47 54.072 2620.34 51.96C2616.21 49.752 2611.6 48.648 2606.51 48.648C2597.59 48.648 2590.43 51.384 2585.06 56.856C2579.78 62.328 2577.14 69.576 2577.14 78.6C2577.14 87.624 2579.78 94.872 2585.06 100.344C2590.43 105.816 2597.59 108.552 2606.51 108.552C2611.6 108.552 2616.21 107.448 2620.34 105.24C2624.56 103.032 2627.73 100.008 2629.84 96.168L2649.71 107.688C2645.39 114.888 2639.39 120.6 2631.71 124.824C2624.03 128.952 2615.63 131.016 2606.51 131.016ZM2695.07 106.824H2735.39V129H2672.03V28.2H2734.67V50.376H2695.07V67.08H2731.07V88.968H2695.07V106.824ZM2873.53 121.656C2866.23 127.896 2856.92 131.016 2845.59 131.016C2834.26 131.016 2824.95 127.896 2817.66 121.656C2810.36 115.416 2806.71 107.016 2806.71 96.456V28.2H2829.75V94.44C2829.75 103.848 2835.03 108.552 2845.59 108.552C2856.15 108.552 2861.43 103.848 2861.43 94.44V28.2H2884.47V96.456C2884.47 107.016 2880.82 115.416 2873.53 121.656ZM2947.89 131.016C2937.62 131.016 2929.02 128.808 2922.11 124.392C2915.3 119.88 2910.45 113.784 2907.57 106.104L2927.44 94.584C2931.47 103.896 2938.53 108.552 2948.61 108.552C2957.73 108.552 2962.29 105.816 2962.29 100.344C2962.29 97.368 2960.8 95.064 2957.82 93.432C2954.94 91.704 2949.47 89.736 2941.41 87.528C2937.18 86.376 2933.49 85.08 2930.32 83.64C2927.15 82.2 2924.03 80.328 2920.96 78.024C2917.98 75.624 2915.68 72.648 2914.05 69.096C2912.51 65.544 2911.74 61.464 2911.74 56.856C2911.74 47.544 2915.06 40.104 2921.68 34.536C2928.4 28.968 2936.37 26.184 2945.58 26.184C2953.84 26.184 2961.14 28.152 2967.47 32.088C2973.81 35.928 2978.8 41.544 2982.45 48.936L2963.01 60.312C2961.18 56.472 2958.93 53.592 2956.24 51.672C2953.55 49.656 2950 48.648 2945.58 48.648C2942.13 48.648 2939.44 49.416 2937.52 50.952C2935.7 52.392 2934.78 54.168 2934.78 56.28C2934.78 58.776 2935.94 60.936 2938.24 62.76C2940.64 64.584 2945.54 66.6 2952.93 68.808C2956.96 70.056 2960.08 71.064 2962.29 71.832C2964.5 72.6 2967.28 73.896 2970.64 75.72C2974.1 77.448 2976.69 79.32 2978.42 81.336C2980.24 83.256 2981.82 85.848 2983.17 89.112C2984.61 92.28 2985.33 95.928 2985.33 100.056C2985.33 109.656 2981.87 117.24 2974.96 122.808C2968.05 128.28 2959.02 131.016 2947.89 131.016ZM3030.7 106.824H3071.02V129H3007.66V28.2H3070.3V50.376H3030.7V67.08H3066.7V88.968H3030.7V106.824ZM3148.53 129L3129.52 95.88H3118.58V129H3095.54V28.2H3135.86C3145.46 28.2 3153.62 31.56 3160.34 38.28C3167.06 45 3170.42 53.16 3170.42 62.76C3170.42 68.904 3168.69 74.616 3165.23 79.896C3161.87 85.08 3157.41 89.112 3151.84 91.992L3173.3 129H3148.53ZM3118.58 49.8V75.72H3135.86C3139.03 75.72 3141.71 74.472 3143.92 71.976C3146.23 69.48 3147.38 66.408 3147.38 62.76C3147.38 59.112 3146.23 56.04 3143.92 53.544C3141.71 51.048 3139.03 49.8 3135.86 49.8H3118.58ZM3266.21 106.824H3306.53V129H3243.17V28.2H3305.81V50.376H3266.21V67.08H3302.21V88.968H3266.21V106.824ZM3410.25 129H3384.04L3367.05 99.912L3350.06 129H3323.85L3353.95 77.304L3325.29 28.2H3351.5L3367.05 54.84L3382.6 28.2H3408.81L3380.16 77.304L3410.25 129ZM3470.03 28.2C3479.92 28.2 3488.27 31.56 3495.08 38.28C3501.9 45 3505.31 53.16 3505.31 62.76C3505.31 72.36 3501.9 80.52 3495.08 87.24C3488.27 93.96 3479.92 97.32 3470.03 97.32H3454.91V129H3431.87V28.2H3470.03ZM3470.03 75.72C3473.58 75.72 3476.51 74.472 3478.81 71.976C3481.12 69.48 3482.27 66.408 3482.27 62.76C3482.27 59.112 3481.12 56.04 3478.81 53.544C3476.51 51.048 3473.58 49.8 3470.03 49.8H3454.91V75.72H3470.03ZM3551.37 106.824H3591.69V129H3528.33V28.2H3590.97V50.376H3551.37V67.08H3587.37V88.968H3551.37V106.824ZM3669.2 129L3650.19 95.88H3639.25V129H3616.21V28.2H3656.53C3666.13 28.2 3674.29 31.56 3681.01 38.28C3687.73 45 3691.09 53.16 3691.09 62.76C3691.09 68.904 3689.36 74.616 3685.9 79.896C3682.54 85.08 3678.08 89.112 3672.51 91.992L3693.97 129H3669.2ZM3639.25 49.8V75.72H3656.53C3659.69 75.72 3662.38 74.472 3664.59 71.976C3666.89 69.48 3668.05 66.408 3668.05 62.76C3668.05 59.112 3666.89 56.04 3664.59 53.544C3662.38 51.048 3659.69 49.8 3656.53 49.8H3639.25ZM3716.32 28.2H3739.36V129H3716.32V28.2ZM3791.24 106.824H3831.56V129H3768.2V28.2H3830.84V50.376H3791.24V67.08H3827.24V88.968H3791.24V106.824ZM3912.24 28.2H3935.28V129H3918L3879.12 74.28V129H3856.08V28.2H3873.36L3912.24 82.92V28.2ZM4012.16 131.016C3997.09 131.016 3984.56 126.024 3974.58 116.04C3964.69 105.96 3959.75 93.48 3959.75 78.6C3959.75 63.72 3964.69 51.288 3974.58 41.304C3984.56 31.224 3997.09 26.184 4012.16 26.184C4021.19 26.184 4029.54 28.296 4037.22 32.52C4044.9 36.648 4050.95 42.312 4055.36 49.512L4035.49 61.032C4033.28 57.096 4030.12 54.072 4025.99 51.96C4021.86 49.752 4017.25 48.648 4012.16 48.648C4003.24 48.648 3996.08 51.384 3990.71 56.856C3985.43 62.328 3982.79 69.576 3982.79 78.6C3982.79 87.624 3985.43 94.872 3990.71 100.344C3996.08 105.816 4003.24 108.552 4012.16 108.552C4017.25 108.552 4021.86 107.448 4025.99 105.24C4030.21 103.032 4033.38 100.008 4035.49 96.168L4055.36 107.688C4051.04 114.888 4045.04 120.6 4037.36 124.824C4029.68 128.952 4021.28 131.016 4012.16 131.016ZM4100.72 106.824H4141.04V129H4077.68V28.2H4140.32V50.376H4100.72V67.08H4136.72V88.968H4100.72V106.824Z" fill="#212121"/>
</svg>